<svg width="51" height="50" viewBox="0 0 51 50" fill="none" xmlns="http://www.w3.org/2000/svg">
<path d="M4.82812 25.2225C4.82812 14.2354 13.7349 5.32861 24.722 5.32861C35.709 5.32861 44.6158 14.2354 44.6158 25.2225C44.6158 36.2095 35.709 45.1163 24.722 45.1163C13.7349 45.1163 4.82812 36.2095 4.82812 25.2225Z" fill="#D68057"/>
<path d="M37.4706 18.4356L37.5155 18.4266L37.5598 18.4145C37.9836 18.299 38.3902 18.0882 38.7268 17.7516C39.229 17.2493 39.3408 16.6 39.3408 16.1062V13.7061C39.7792 13.7187 40.2177 13.7154 40.6562 13.6963L40.6826 13.6952L40.709 13.693C41.2783 13.6456 41.8125 13.5609 42.3048 13.4319C42.9412 13.2711 43.654 12.9043 44.014 12.1244L44.014 12.1244L44.0172 12.1174C44.2083 11.6969 44.2965 11.2514 44.2965 10.7988C44.2965 10.4891 44.2861 10.1928 44.2642 9.91103C44.2625 9.71661 44.252 9.52493 44.2314 9.33676C44.2247 9.08465 44.1881 8.81872 44.1002 8.55509C43.9179 8.00819 43.517 7.66363 43.1076 7.47915C42.7116 7.29196 42.2872 7.26052 41.9732 7.26052H39.3823C39.3877 7.1674 39.3937 7.07303 39.4002 6.97742C39.4699 6.26612 39.4624 5.58658 39.3594 4.94981C39.2635 4.19669 38.9696 3.48275 38.3899 2.93381C37.6347 2.19341 36.5763 2.11864 35.6899 2.21678C34.8365 2.30877 33.9786 2.667 33.4603 3.5024C33.0919 4.07737 32.9013 4.72939 32.8443 5.41273C32.7946 6.00966 32.8069 6.62104 32.8771 7.24482C32.6287 7.2432 32.3779 7.24847 32.1248 7.26054C31.6883 7.26108 31.2695 7.27228 30.8688 7.29455C30.4889 7.31565 30.0861 7.35148 29.7774 7.43967L29.7496 7.44762L29.7221 7.45677C29.1922 7.63342 28.7314 7.97307 28.4256 8.4828L28.4142 8.50183L28.4034 8.52124C28.2108 8.86784 28.0933 9.2413 28.0301 9.62061L28.0211 9.67452L28.0165 9.72899C27.9889 10.0611 27.9895 10.3989 28.0159 10.7411L28.0204 10.7998L28.0301 10.8579C28.0782 11.1466 28.1397 11.4241 28.2169 11.6878C28.3479 12.2145 28.6255 12.6732 29.0284 13.0359L29.0727 13.0757L29.1203 13.1114C29.5503 13.4339 30.0844 13.5729 30.5319 13.6475L30.5715 13.6541L30.6114 13.6583C31.0648 13.706 31.5271 13.7296 31.9978 13.7296C32.2945 13.7296 32.5837 13.7251 32.8652 13.7161C32.8281 14.2655 32.8312 14.8027 32.8767 15.3264L32.8792 15.3549L32.8829 15.3833C32.9659 16.0192 33.1505 16.6208 33.455 17.1688L33.4767 17.2079L33.5011 17.2455C34.0192 18.0463 34.8419 18.3844 35.6798 18.4267C35.9088 18.4475 36.1473 18.4682 36.3953 18.4888C36.7536 18.5187 37.1153 18.5066 37.4706 18.4356Z" fill="#D68057" stroke="#FEF5E0" stroke-width="2.66435"/>
<path d="M20.1531 21.4496C20.0465 21.5443 19.8926 21.6745 19.6913 21.8403C19.5018 22.0061 19.2946 22.1719 19.0696 22.3377C18.8564 22.5035 18.6433 22.6515 18.4301 22.7817C18.2288 22.9001 18.0571 22.9594 17.915 22.9594C17.7729 22.9594 17.6367 22.9061 17.5065 22.7995C17.3762 22.6929 17.2697 22.5627 17.1868 22.4087C17.1039 22.2548 17.0624 22.0949 17.0624 21.9291C17.0624 21.7634 17.1276 21.6213 17.2578 21.5028C17.4591 21.3252 17.6663 21.1654 17.8795 21.0233C18.1045 20.8812 18.3176 20.7213 18.5189 20.5437C18.6729 20.4016 18.8209 20.2476 18.963 20.0819C19.1051 19.9161 19.2531 19.7503 19.4071 19.5845C19.561 19.4187 19.7149 19.2707 19.8689 19.1404C20.0347 18.9983 20.2182 18.8859 20.4195 18.803C20.5735 18.7438 20.7807 18.7023 21.0412 18.6786C21.3017 18.6549 21.5681 18.649 21.8405 18.6609C22.1247 18.6609 22.3971 18.6786 22.6576 18.7141C22.9181 18.7497 23.1194 18.803 23.2615 18.874C23.4746 18.9569 23.6227 19.1049 23.7055 19.3181C23.7648 19.4483 23.8003 19.5845 23.8121 19.7266C23.824 19.8569 23.8299 19.9871 23.8299 20.1174C23.8299 21.1594 23.8062 22.1956 23.7588 23.2258C23.7115 24.2442 23.7056 25.2744 23.7411 26.3164C23.7529 26.5651 23.7707 26.8967 23.7944 27.3111C23.8299 27.7256 23.8536 28.1519 23.8654 28.59C23.8891 29.0163 23.895 29.4249 23.8832 29.8156C23.8832 30.2064 23.8536 30.5084 23.7944 30.7215C23.747 30.9347 23.6227 31.1182 23.4214 31.2721C23.3029 31.355 23.1253 31.4261 22.8885 31.4853C22.6516 31.5327 22.3971 31.5682 22.1247 31.5919C21.8523 31.6155 21.5859 31.6274 21.3254 31.6274C21.0767 31.6274 20.8813 31.6155 20.7392 31.5919C20.5853 31.5682 20.4373 31.5267 20.2952 31.4675C20.1531 31.4083 20.0347 31.3136 19.9399 31.1833C19.8334 31.0412 19.7623 30.7985 19.7268 30.4551C19.7031 30.1117 19.6972 29.7446 19.709 29.3538C19.7209 28.963 19.7445 28.5841 19.7801 28.217C19.8156 27.8499 19.8393 27.5657 19.8511 27.3644C19.9222 26.3697 19.9814 25.3869 20.0287 24.4159C20.0879 23.433 20.1294 22.4442 20.1531 21.4496ZM31.3445 23.9896C31.4629 24.0606 31.5754 24.1376 31.682 24.2205C31.7885 24.3034 31.8833 24.404 31.9662 24.5224C32.3096 25.0079 32.5819 25.5704 32.7832 26.2099C32.9845 26.8375 33.0733 27.4473 33.0497 28.0394C33.026 28.6788 32.872 29.2532 32.5878 29.7623C32.3036 30.2597 31.9366 30.6741 31.4866 31.0057C31.0484 31.3373 30.557 31.5741 30.0123 31.7162C29.4676 31.8701 28.917 31.9175 28.3604 31.8583C27.8038 31.7991 27.271 31.6333 26.7618 31.361C26.2526 31.0768 25.8204 30.6682 25.4651 30.1353C25.3941 30.0406 25.3171 29.8926 25.2342 29.6913C25.1632 29.49 25.1099 29.2887 25.0744 29.0874C25.0507 28.8742 25.0625 28.6907 25.1099 28.5367C25.1691 28.371 25.3053 28.2762 25.5184 28.2525C25.6605 28.2407 25.8026 28.3117 25.9447 28.4657C26.0987 28.6078 26.2526 28.7854 26.4065 28.9986C26.5723 29.2117 26.744 29.4308 26.9216 29.6558C27.0993 29.8808 27.2828 30.0643 27.4723 30.2064C27.6617 30.3367 27.8571 30.3959 28.0584 30.384C28.2716 30.3722 28.4966 30.236 28.7334 29.9755C28.9702 29.715 29.1538 29.3656 29.284 28.9275C29.4261 28.4894 29.4972 28.0453 29.4972 27.5953C29.4972 27.1335 29.4202 26.7013 29.2663 26.2987C29.1242 25.8961 28.8814 25.5941 28.538 25.3928C28.3722 25.2981 28.1828 25.2389 27.9696 25.2152C27.7565 25.1915 27.5433 25.1796 27.3302 25.1796C27.1289 25.1678 26.9335 25.156 26.744 25.1441C26.5546 25.1323 26.4006 25.0908 26.2822 25.0198C26.1875 24.9606 26.1164 24.8777 26.0691 24.7711C26.0335 24.6645 26.0217 24.558 26.0335 24.4514C26.0454 24.3448 26.0809 24.2442 26.1401 24.1494C26.1993 24.0547 26.2763 23.9836 26.371 23.9363C26.4302 23.9126 26.519 23.9008 26.6374 23.9008C26.7677 23.8889 26.9039 23.883 27.046 23.883C27.1881 23.883 27.3243 23.8889 27.4545 23.9008C27.5966 23.9008 27.7091 23.9008 27.792 23.9008C28.1236 23.8771 28.4137 23.7942 28.6624 23.6521C28.911 23.4981 29.1183 23.3087 29.284 23.0837C29.4498 22.8587 29.5682 22.6041 29.6393 22.3199C29.7222 22.0357 29.7577 21.7397 29.7459 21.4318C29.734 21.2068 29.6807 20.9877 29.586 20.7746C29.5031 20.5614 29.3788 20.3838 29.213 20.2417C29.0591 20.0996 28.8755 19.999 28.6624 19.9398C28.4611 19.8805 28.242 19.8865 28.0052 19.9575C27.721 20.0522 27.5078 20.1766 27.3657 20.3305C27.2354 20.4726 27.1289 20.6266 27.046 20.7923C26.9749 20.9581 26.9039 21.1298 26.8328 21.3075C26.7736 21.4851 26.673 21.6449 26.5309 21.787C26.448 21.8699 26.3414 21.9114 26.2112 21.9114C26.0809 21.9114 25.9566 21.8877 25.8381 21.8403C25.7197 21.7811 25.625 21.7101 25.5539 21.6272C25.4947 21.5443 25.4888 21.4673 25.5362 21.3963C25.6191 20.745 25.8559 20.2062 26.2467 19.7799C26.6493 19.3536 27.123 19.0398 27.6677 18.8385C28.2124 18.6253 28.7867 18.5247 29.3906 18.5365C30.0064 18.5365 30.5629 18.6549 31.0603 18.8918C31.5695 19.1168 31.978 19.4542 32.2859 19.9042C32.6056 20.3542 32.7418 20.9108 32.6944 21.5739C32.6589 22.0476 32.5168 22.5035 32.2681 22.9416C32.0313 23.3679 31.7234 23.7172 31.3445 23.9896Z" fill="#FEF5E0"/>
</svg>
