<svg width="24" height="24" viewBox="0 0 24 24" fill="none" xmlns="http://www.w3.org/2000/svg">
<path d="M9 17C10.4308 17 11.8653 17.0433 13.2893 17.0433" stroke="black" stroke-linecap="round"/>
<path d="M6.98087 14.7175C7.04361 14.8788 7.38451 15.2408 7.54361 15.4934C7.72546 15.7359 7.86049 15.9104 8.07752 16.1275C8.2964 16.3463 8.54864 16.5268 8.75551 16.7595C9.01602 17.0526 9.30272 17.3866 9.39027 17.7806C9.4621 18.1038 9.53613 18.3719 9.53613 18.7043C9.53613 19.2076 9.6799 19.6612 9.76842 20.1521C9.88028 20.7724 10.5639 21.4271 11.2108 21.4271C11.6759 21.4271 12.2214 21.2894 12.5506 20.9409C12.734 20.7467 12.7995 20.4856 13.0368 20.3331C13.2257 20.2117 13.3039 19.9637 13.3987 19.774C13.4859 19.5997 13.4672 19.3455 13.4744 19.1527C13.489 18.7568 13.5179 18.3207 13.5824 17.9264C13.7111 17.1398 13.9938 16.5318 14.544 15.9816C15.2121 15.3135 15.6915 14.4885 16.0998 13.6478C16.3393 13.1549 16.3164 12.2687 16.1728 11.7517C16.0024 11.1383 15.7005 10.5412 15.4786 9.94191C15.1618 9.08659 14.2361 8.31545 13.4555 7.91067C13.1275 7.74061 12.6734 7.71619 12.3075 7.71619C11.7737 7.71619 11.2249 7.73883 10.703 7.86205C9.75827 8.08511 8.96997 8.44398 8.20178 9.05324C7.72943 9.42786 7.41874 9.82731 7.05704 10.2924L7.0565 10.2931C6.71848 10.7276 6.71616 11.2951 6.71616 11.8273C6.71616 12.0997 6.66754 12.3489 6.66754 12.616C6.66754 13.3637 6.70991 14.0207 6.98087 14.7175Z" stroke="black" stroke-linecap="round"/>
<path d="M2 12.4323C2.59691 12.4323 3.1852 12.487 3.75032 12.6754" stroke="black" stroke-linecap="round"/>
<path d="M4.72278 5.62549C4.73893 5.69816 4.82731 5.73543 4.87674 5.78485C5.03531 5.94342 5.15516 6.13386 5.30352 6.30077C5.43343 6.44691 5.53855 6.57092 5.64656 6.73295C5.74807 6.88522 5.90828 7.0241 5.9869 7.18133" stroke="black" stroke-linecap="round"/>
<path d="M11.6268 3V5.04204" stroke="black" stroke-linecap="round"/>
<path d="M17.1208 7.08411C17.1413 6.92034 17.4661 6.6886 17.5962 6.60871C17.7843 6.49331 17.9563 6.40119 18.1419 6.28187C18.3761 6.13127 18.5776 5.9677 18.7739 5.77136" stroke="black" stroke-linecap="round"/>
<path d="M18.9198 12.2378C19.7026 12.2813 20.5271 12.335 21.3022 12.335" stroke="black" stroke-linecap="round"/>
</svg>
