<svg xmlns="http://www.w3.org/2000/svg" width="24" height="25" viewBox="0 0 24 25" fill="none">
  <path d="M7.8 2.89941H16.2C19.4 2.89941 22 5.49941 22 8.69941V17.0994C22 18.6377 21.3889 20.1129 20.3012 21.2006C19.2135 22.2883 17.7383 22.8994 16.2 22.8994H7.8C4.6 22.8994 2 20.2994 2 17.0994V8.69941C2 7.16116 2.61107 5.68591 3.69878 4.59819C4.78649 3.51048 6.26174 2.89941 7.8 2.89941ZM7.6 4.89941C6.64522 4.89941 5.72955 5.2787 5.05442 5.95383C4.37928 6.62896 4 7.54463 4 8.49941V17.2994C4 19.2894 5.61 20.8994 7.6 20.8994H16.4C17.3548 20.8994 18.2705 20.5201 18.9456 19.845C19.6207 19.1699 20 18.2542 20 17.2994V8.49941C20 6.50941 18.39 4.89941 16.4 4.89941H7.6ZM17.25 6.39941C17.5815 6.39941 17.8995 6.53111 18.1339 6.76553C18.3683 6.99995 18.5 7.31789 18.5 7.64941C18.5 7.98093 18.3683 8.29888 18.1339 8.5333C17.8995 8.76772 17.5815 8.89941 17.25 8.89941C16.9185 8.89941 16.6005 8.76772 16.3661 8.5333C16.1317 8.29888 16 7.98093 16 7.64941C16 7.31789 16.1317 6.99995 16.3661 6.76553C16.6005 6.53111 16.9185 6.39941 17.25 6.39941ZM12 7.89941C13.3261 7.89941 14.5979 8.4262 15.5355 9.36388C16.4732 10.3016 17 11.5733 17 12.8994C17 14.2255 16.4732 15.4973 15.5355 16.4349C14.5979 17.3726 13.3261 17.8994 12 17.8994C10.6739 17.8994 9.40215 17.3726 8.46447 16.4349C7.52678 15.4973 7 14.2255 7 12.8994C7 11.5733 7.52678 10.3016 8.46447 9.36388C9.40215 8.4262 10.6739 7.89941 12 7.89941ZM12 9.89941C11.2044 9.89941 10.4413 10.2155 9.87868 10.7781C9.31607 11.3407 9 12.1038 9 12.8994C9 13.6951 9.31607 14.4581 9.87868 15.0207C10.4413 15.5833 11.2044 15.8994 12 15.8994C12.7956 15.8994 13.5587 15.5833 14.1213 15.0207C14.6839 14.4581 15 13.6951 15 12.8994C15 12.1038 14.6839 11.3407 14.1213 10.7781C13.5587 10.2155 12.7956 9.89941 12 9.89941Z" fill="#161B32"/>
</svg>