<svg xmlns="http://www.w3.org/2000/svg" width="25" height="25" viewBox="0 0 25 25" fill="none">
<path d="M10.9321 8.94373C11.1691 8.81696 11.3275 8.69832 11.3275 8.69832C11.4355 8.62955 11.5434 8.60257 11.752 8.52147C11.902 8.40486 12.1343 8.4586 12.31 8.43257C12.4907 8.4058 12.7244 8.41009 12.9042 8.43257C13.1026 8.45737 13.3011 8.44438 13.4996 8.47C13.8243 8.51189 14.1482 8.53748 14.4752 8.55305C14.5616 8.55717 14.6738 8.53213 14.7571 8.5589C14.8287 8.58191 14.8921 8.62887 14.9629 8.65481C15.118 8.71159 15.2467 8.74251 15.3723 8.85951C15.4756 8.95568 15.5568 9.07029 15.6367 9.18587C15.7918 9.41038 15.919 9.63143 16.0262 9.88302C16.1382 10.1459 16.3221 10.4175 16.3537 10.7018C16.3647 10.8009 16.4009 10.897 16.411 10.9966C16.4245 11.1284 16.4157 11.2643 16.4157 11.3966C16.4157 12.0068 16.1422 12.5788 15.8987 13.1243C15.7822 13.3853 15.6242 13.6116 15.4589 13.8437C15.3965 13.9313 15.3603 14.0303 15.2986 14.1151C15.1222 14.3577 14.9448 14.6041 14.7734 14.8496C14.5063 15.2323 14.1974 15.6403 13.7733 15.8591C13.5863 15.9556 13.4074 15.9445 13.2037 15.9445C12.9781 15.9445 12.7648 15.942 12.5416 15.9024C12.0069 15.8074 11.489 15.6095 10.9742 15.4497C10.8005 15.3958 10.6048 15.3248 10.4572 15.2181C10.2068 15.0373 9.94458 14.8736 9.69451 14.6929C9.4214 14.4955 9.09983 14.2992 8.96227 13.977C8.82059 13.6452 8.62036 13.326 8.60551 12.9547C8.59323 12.6477 8.60755 12.3668 8.67803 12.0692C8.76684 11.6942 8.93743 11.331 8.97865 10.9451C8.99634 10.7794 9.04734 10.7641 9.16346 10.648C9.31242 10.4991 9.4414 10.3483 9.57052 10.1825C9.70565 10.0089 9.86255 9.85044 10.0138 9.69118C10.1122 9.58765 10.1906 9.46997 10.2981 9.37536C10.4917 9.20498 10.7032 9.06616 10.9321 8.94373Z" stroke="#161B32" stroke-width="0.6" stroke-linecap="round"/>
<path d="M11.6632 7.99499C11.7849 7.91421 11.8787 7.82644 12.0141 7.7704C12.0928 7.74229 12.1332 7.71191 12.2188 7.71191C12.458 7.71191 12.686 7.76366 12.9253 7.77625C13.1918 7.79028 13.4561 7.8873 13.7172 7.93416C14.1009 8.00302 14.4016 8.27038 14.7091 8.49095C14.9181 8.64085 15.1168 8.71116 15.2881 8.90854C15.4597 9.10618 15.6331 9.29323 15.7829 9.50626C15.911 9.68843 15.9649 9.91525 16.0309 10.1239C16.1308 10.4395 16.2557 10.7639 16.4309 11.0456L16.4353 11.0525C16.4921 11.1438 16.5172 11.1841 16.5035 11.2936C16.4908 11.3952 16.4824 11.493 16.4824 11.5954C16.4824 12.2137 16.2637 12.793 16.1245 13.3886C16.0611 13.6596 15.9817 13.9372 15.9443 14.2132C15.9311 14.311 15.9614 14.4351 15.9128 14.5244C15.766 14.7934 15.5782 15.0651 15.3922 15.3081C15.0993 15.6907 14.7407 15.9541 14.3722 16.2602C14.22 16.3867 14.0328 16.4872 13.8599 16.5819C13.6458 16.6991 13.4042 16.8862 13.1651 16.9503C12.9566 17.0063 12.6698 16.9511 12.4598 16.9234C12.2356 16.8939 12.0187 16.8498 11.7918 16.8498C11.5727 16.8498 11.4176 16.8281 11.2269 16.7117C11.0092 16.579 10.7782 16.4717 10.5683 16.3257C10.4315 16.2306 10.2257 16.1203 10.1332 15.9748C9.99393 15.756 9.77498 15.6018 9.61851 15.397C9.44383 15.1683 9.2841 14.914 9.17518 14.6472C9.07504 14.4018 8.96061 14.1599 8.88158 13.9067C8.82293 13.7188 8.82859 13.5112 8.77163 13.3289C8.68201 13.0421 8.46482 12.7961 8.35989 12.5124C8.26213 12.2481 8.33416 11.9554 8.33416 11.6831C8.33416 11.4038 8.44428 11.1406 8.57512 10.8959C8.74193 10.5839 8.91934 10.2284 9.15764 9.96362C9.37857 9.71814 9.55151 9.41083 9.81736 9.20915C9.96776 9.09505 10.1285 9.01574 10.2876 8.91672C10.5183 8.77315 10.7515 8.62165 10.9684 8.45702C11.1903 8.2885 11.4311 8.14898 11.6632 7.99499Z" stroke="#161B32" stroke-width="0.6" stroke-linecap="round"/>
<path d="M17.4532 7.0118C17.2525 7.0118 17.037 6.98278 16.8935 7.14415C16.8015 7.24766 16.7084 7.34054 16.6264 7.45296C16.5336 7.58005 16.5139 7.78015 16.512 7.93498C16.5082 8.24133 16.5383 8.51516 16.8568 8.63595C17.059 8.71266 17.3687 8.72757 17.5708 8.62941C17.7681 8.53356 17.8536 8.2747 17.9009 8.07877C17.9523 7.86588 17.9203 7.67024 17.8502 7.46767C17.8023 7.32925 17.6712 7.24873 17.6149 7.12209C17.5815 7.04693 17.5018 7.0118 17.4237 7.0118" stroke="#161B32" stroke-width="0.647652" stroke-linecap="round"/>
<path d="M5.82148 5.15105C5.40417 5.61473 5.15656 6.11763 4.90378 6.67936C4.83398 6.83448 4.79256 6.99934 4.7159 7.15266C4.64861 7.28725 4.52865 7.50563 4.5208 7.65487C4.49018 8.23665 4.48828 8.82385 4.48828 9.4108C4.48828 9.87146 4.48828 10.3321 4.48828 10.7928C4.48828 11.0421 4.48828 11.2914 4.48828 11.5407C4.48828 11.8287 4.55332 12.1164 4.55332 12.4042C4.55332 12.8913 4.61835 13.3744 4.61835 13.8638C4.61835 14.1456 4.64208 14.4486 4.68338 14.7273C4.78177 15.3915 4.9973 16.0265 5.08082 16.6946C5.12202 17.0243 5.16189 17.2084 5.3265 17.5184C5.46284 17.7752 5.50875 18.0858 5.6589 18.3277C5.75286 18.4791 5.81374 18.7023 5.86123 18.8733C5.90986 19.0484 6.02926 19.2305 6.12136 19.3863C6.28572 19.6645 6.47064 19.7311 6.7428 19.8632C7.12671 20.0497 7.50272 20.2504 7.88451 20.4413C8.30587 20.652 8.82842 20.7644 9.28636 20.8749C9.63067 20.958 10.0566 21.0688 10.4118 21.0501C11.0585 21.0161 11.7074 20.9885 12.3538 20.9526C12.8327 20.926 13.3093 20.8816 13.7882 20.855C14.1479 20.835 14.5127 20.6996 14.8594 20.6129C15.3504 20.4902 15.8433 20.3074 16.3227 20.1414C16.7426 19.9961 17.1575 19.8399 17.5602 19.6609C17.7396 19.5812 17.8829 19.4255 18.0371 19.2996C18.2533 19.1231 18.4777 18.9557 18.691 18.7757C18.8708 18.6241 19.0346 18.4225 19.2258 18.288C19.5401 18.0667 19.7805 17.7908 19.8689 17.4028C19.959 17.0072 19.9485 16.5972 20.0965 16.2141C20.194 15.9618 20.3147 15.7154 20.4144 15.459C20.5431 15.1282 20.6446 14.7994 20.7143 14.451C20.7765 14.1399 20.9099 13.8615 20.9889 13.5567C21.1283 13.019 21.0045 12.3919 20.9727 11.8514C20.9437 11.3582 20.8661 10.8682 20.8444 10.3737C20.8309 10.0674 20.7837 9.76868 20.7468 9.46499C20.7328 9.34953 20.6818 9.26358 20.6818 9.14524C20.6818 8.36915 20.3698 7.60754 20.2428 6.84556C20.1983 6.57866 20.1781 6.23324 20.0658 5.98747C19.8947 5.61323 19.6079 5.32905 19.3161 5.0535C19.1531 4.89957 18.9961 4.80321 18.7958 4.70304C18.7158 4.66304 18.6492 4.63078 18.561 4.63078C18.3334 4.63078 18.1057 4.62925 17.8781 4.63078C17.619 4.63252 17.3613 4.70024 17.1049 4.69581C16.6472 4.68792 16.2627 4.28048 15.797 4.27309C15.5834 4.2697 15.3676 4.26716 15.1539 4.27309C14.8853 4.28055 14.6236 4.34157 14.3482 4.33813C14.2271 4.33661 14.1231 4.27704 14.0086 4.27309C13.7864 4.26543 13.5625 4.27309 13.3402 4.27309C12.2581 4.27309 11.176 4.27309 10.0939 4.27309C9.69011 4.27309 9.27465 4.38056 8.87809 4.45194C8.46113 4.52699 8.03998 4.57141 7.6298 4.67775C7.39601 4.73836 7.17455 4.74613 6.94332 4.84034C6.75775 4.91594 6.54261 4.96676 6.34356 4.98666C6.2186 4.99916 6.11554 4.97843 5.99852 5.02099C5.77811 5.10114 5.57129 5.15809 5.36624 5.28112" stroke="#161B32" stroke-width="0.8" stroke-linecap="round"/>
<path d="M14.7625 3.36249C14.4912 3.36249 14.2211 3.35433 13.9568 3.42752C13.6837 3.50316 13.4838 3.55759 13.1945 3.55759C12.968 3.55759 12.7439 3.55905 12.5261 3.62985C12.4217 3.66378 12.3052 3.74712 12.1937 3.7527C11.7557 3.77459 11.3171 3.74088 10.8803 3.80328C10.6223 3.84014 10.3513 3.88431 10.0963 3.93154C9.89035 3.96968 9.68104 3.98822 9.47667 4.02909C9.14528 4.09537 8.83057 4.10055 8.49754 4.20974C7.9594 4.38618 7.44169 4.62742 6.90059 4.79324C6.35713 4.95979 5.82407 5.02802 5.2928 5.25571C5.07049 5.35099 4.95675 5.36504 4.83756 5.56643C4.63624 5.90659 4.39768 6.22552 4.19625 6.56543C3.9051 7.05675 3.87066 7.55122 3.80424 8.09915C3.70557 8.91317 3.66172 9.75215 3.51881 10.556C3.4902 10.717 3.51158 10.8978 3.51158 11.0618C3.51158 11.446 3.51158 11.8302 3.51158 12.2144C3.51158 12.943 3.51158 13.6716 3.51158 14.4002C3.51158 14.773 3.63188 15.113 3.72295 15.4733C3.83433 15.914 3.92602 16.35 4.01741 16.7939C4.07037 17.0511 4.17113 17.2749 4.21251 17.5291C4.28902 17.9991 4.46522 18.4784 4.67498 18.9057C4.7887 19.1373 4.88094 19.3738 4.97486 19.6138C5.08206 19.8878 5.31101 20.1045 5.52765 20.2967C5.6031 20.3636 5.74031 20.5605 5.83475 20.5893C6.03853 20.6516 6.22884 20.7245 6.42729 20.8097C6.80879 20.9737 7.18535 21.024 7.59248 21.0843C7.76876 21.1104 7.93352 21.1819 8.11456 21.1819C8.38494 21.1819 8.65531 21.1819 8.92569 21.1819C9.36527 21.1819 9.80485 21.1819 10.2444 21.1819C10.5808 21.1819 10.9117 21.1742 11.247 21.1494C11.4775 21.1323 11.6768 21.0348 11.901 20.994C12.1194 20.9543 12.3356 20.9375 12.5513 20.882C12.8152 20.8142 13.0804 20.8198 13.3534 20.7664C14.2152 20.5979 15.0622 20.3849 15.9169 20.1919C16.1102 20.1483 16.3027 20.1458 16.4913 20.0907C16.9834 19.9472 17.4875 19.9285 17.9962 19.8812C18.2849 19.8543 18.5592 19.7108 18.8272 19.6066C18.9808 19.5468 19.199 19.4829 19.3149 19.3609C19.4189 19.2514 19.5061 19.1145 19.6003 18.996C19.7246 18.8396 19.8729 18.7105 19.9978 18.5552C20.1373 18.3818 20.2881 18.1949 20.388 17.9952C20.5571 17.657 20.7837 17.3334 20.8143 16.951C20.8462 16.5525 21.1352 16.2649 21.2497 15.896C21.3091 15.7045 21.413 15.5189 21.461 15.327C21.5319 15.0436 21.4936 14.727 21.4936 14.4364C21.4936 14.1177 21.3704 13.8167 21.3635 13.5006C21.3505 12.9049 21.2286 12.3207 21.1937 11.7266C21.1641 11.2235 21.0915 10.6388 21.1937 10.1405C21.2695 9.7708 21.2009 9.32411 21.2009 8.94821C21.2009 8.43233 21.0708 7.92448 21.0708 7.41268C21.0708 7.09488 20.9668 6.69012 20.8739 6.38839C20.8065 6.16943 20.7201 5.96289 20.6644 5.73985C20.6476 5.67287 20.6393 5.50831 20.5668 5.4761C20.4882 5.44117 20.4981 5.38617 20.4819 5.31352C20.4527 5.18203 20.2925 5.0407 20.2109 4.93957C19.9899 4.66553 19.7552 4.42945 19.5028 4.18264C19.2966 3.98103 19.1141 4.03246 18.8597 3.94057C18.6553 3.86676 18.4658 3.74955 18.2671 3.66237C18.0595 3.57125 17.8251 3.51786 17.606 3.46004C17.2079 3.35499 16.8672 3.26494 16.4534 3.26494C16.0662 3.26494 15.6867 3.23242 15.299 3.23242C15.024 3.23242 14.7718 3.32997 14.5024 3.32997" stroke="#161B32" stroke-width="0.8" stroke-linecap="round"/>
</svg>