<svg width="25" height="25" viewBox="0 0 25 25" fill="none" xmlns="http://www.w3.org/2000/svg">
<path d="M16.5 4C16.5 4 15.7917 4.43879 15.6232 4.57193C15.2961 4.83037 14.9679 5.09971 14.706 5.42706C14.4309 5.77088 14.0211 6.04991 13.7083 6.36265C12.9907 7.08026 12.3132 7.79278 11.5176 8.42921C10.8439 8.9682 10.3258 9.64197 9.67863 10.2061C8.89419 10.89 8.08522 11.5306 7.34772 12.2681C6.94105 12.6748 6.53522 13.0806 6.12938 13.4864C6.07761 13.5382 5.91003 13.6841 6.06272 13.6841C6.65761 13.6841 7.27636 13.7382 7.86723 13.8083C8.2964 13.8591 8.73004 13.8142 9.15682 13.8703C9.54384 13.9212 9.93816 13.9758 10.3269 14.0059C10.4626 14.0165 13.2315 14.0533 13.1681 14.291C12.9893 14.9617 12.3873 15.5738 11.9337 16.084C11.5208 16.5485 11.2554 17.1214 10.9383 17.6563C10.4729 18.4418 10.0343 19.223 9.51313 19.9735C9.10052 20.5676 8.69074 21.1729 8.39364 21.8332C8.36128 21.9051 8.24808 22.1097 8.26721 22.0331C8.27768 21.9913 8.39608 21.9322 8.42582 21.9067C8.64594 21.718 8.86821 21.5313 9.08096 21.3343C9.52282 20.9252 9.96996 20.5185 10.4004 20.0976C10.7728 19.7335 11.1982 19.4327 11.582 19.0816C12.2096 18.5073 12.856 17.9647 13.4624 17.3667C14.1321 16.7062 14.7055 15.9656 15.3657 15.2978C15.993 14.6634 16.7152 14.1437 17.3518 13.5186C17.7537 13.124 18.2276 12.8277 18.6345 12.4428C18.7341 12.3486 18.8367 12.259 18.9334 12.1624C19.0624 12.0333 18.643 12.0711 18.5862 12.0681C17.9467 12.0345 17.3173 11.7862 16.6714 11.7417C15.5504 11.6644 14.4691 11.3246 13.3589 11.1601C13.1676 11.1318 12.9748 11.0951 12.7819 11.0797C12.6475 11.0689 12.5146 11.0017 12.3865 10.9946C12.2748 10.9884 12.1862 10.9924 12.0785 10.9532C11.907 10.8909 12.4492 10.3208 12.4923 10.2682C12.9609 9.69611 13.354 9.0406 13.7842 8.43841C14.2365 7.8052 14.6717 7.17706 15.0853 6.51666C15.4546 5.92686 15.7418 5.30561 16.1611 4.74664L16.5 4Z" stroke="white" stroke-width="0.8" stroke-linecap="round"/>
</svg>
