<svg width="669" height="196" viewBox="0 0 669 196" fill="none" xmlns="http://www.w3.org/2000/svg">
<g filter="url(#filter0_d_692_1542)">
<path d="M17.9158 0.326628C43.2944 -0.182408 68.7854 0.296536 94.175 0.304568L242.591 0.346728L319.197 0.334687C333.139 0.313603 347.983 -0.700471 361.818 0.907965C371.095 1.98527 379.85 5.34473 387.216 11.1319C398.092 19.6751 404.023 32.2353 405.508 45.8307C407.102 60.4201 403.713 75.2655 394.39 86.8026C382.29 101.774 363.378 108.624 344.789 110.576C346.253 113.252 347.952 115.816 350.074 118.017C358.094 126.338 369.216 129.441 380.493 129.649C398.561 129.982 419.505 124.44 432.722 111.532C436.025 108.307 439.351 104.04 440.702 99.5738C442.87 92.4041 441.716 78.8519 441.738 71.1099L441.943 31.9321C437.087 31.9602 412.601 33.1369 409.922 30.7223C408.12 24.2895 409.177 8.10978 409.898 1.11479C423.639 0.160969 437.814 0.868812 451.601 0.860779L530.068 0.784485L617.059 0.492301C633.902 0.406959 651.014 -0.208507 667.827 0.595711C669.813 4.17805 668.813 26.5857 668.18 31.3367C658.254 31.9461 648.114 31.5596 638.163 31.5858L638.583 132.36L638.653 163.923C638.664 168.755 638.96 173.706 638.693 178.523C638.621 179.829 638.443 180.775 637.914 181.968C635.242 183.699 607.665 182.786 602.484 182.551C601.631 173.457 602.176 163.885 602.162 154.73L602.092 102.235L554.229 102.163C554.204 108.594 555.533 130.73 551.927 134.641C549.463 137.312 545.89 138.137 542.399 138.328C532.401 138.875 522.603 135.877 515.232 128.957C507.622 121.814 504.323 112.16 504.108 101.89C503.936 93.625 505.584 84.8419 511.651 78.7786C515.506 74.9262 520.64 72.5999 525.872 71.2866C535.063 68.9804 544.803 69.145 554.216 68.8829C569.993 68.5731 585.772 68.446 601.552 68.5015L601.475 38.0656L601.457 31.6992L476.045 31.9511L476.584 133.699C476.631 149.978 477.262 166.492 476.484 182.746C468.648 183.448 449.76 183.598 442.096 182.337C439.882 179.828 441.271 148.864 441.342 143.155C440.052 143.874 438.75 144.569 437.435 145.24C436.119 145.912 434.792 146.558 433.453 147.181C432.114 147.805 430.764 148.402 429.403 148.976C428.042 149.55 426.672 150.099 425.291 150.622C423.91 151.145 422.52 151.644 421.122 152.117C419.722 152.59 418.315 153.037 416.9 153.458C415.484 153.88 414.062 154.275 412.633 154.645C411.202 155.015 409.766 155.358 408.324 155.675C406.881 155.992 405.434 156.283 403.98 156.547C402.528 156.811 401.071 157.049 399.609 157.261C398.147 157.471 396.683 157.656 395.214 157.814C393.746 157.971 392.276 158.102 390.802 158.205C389.33 158.31 387.855 158.387 386.379 158.438C384.903 158.487 383.427 158.51 381.95 158.506C380.473 158.502 378.997 158.471 377.522 158.415C376.046 158.357 374.571 158.272 373.099 158.162C353.539 156.873 335.402 150.486 322.266 135.352C309.297 120.413 304.94 100.858 306.315 81.4653C310.206 80.8579 314.407 81.107 318.342 81.1119C327.062 81.122 335.963 81.4664 344.644 80.6079C352.656 79.8167 359.939 77.2434 365.127 70.7203C370.233 64.2996 372.373 55.3257 371.492 47.2394C370.854 41.388 368.508 35.918 363.716 32.2614C359.452 29.0074 354.856 29.1621 349.824 29.7685C350.023 33.875 350.325 37.8568 351.234 41.8749C352.208 46.1881 354.049 50.908 354.169 55.3257C354.216 57.0787 353.716 58.4241 352.467 59.6651C349.358 62.7515 344.237 63.4101 340.042 63.4322C333.82 63.4653 327.725 61.5045 323.308 56.9924C316.055 49.5858 316.007 39.5466 316.138 29.908L164.642 30.8628L164.831 131.421L164.841 161.214C164.841 167.886 165.129 174.679 164.343 181.31C164.213 182.413 164.457 181.968 163.571 182.661C158.997 183.407 133.354 183.308 128.774 182.301C127.748 181.122 127.89 179.009 127.84 177.455C127.31 160.643 128.078 143.627 128.168 126.798L128.412 30.8508L89.2783 30.8428C90.6438 41.6895 91.6531 52.569 92.3065 63.4814C92.9597 74.3944 93.2556 85.3168 93.194 96.2485C93.2161 108.355 92.5022 122.202 83.1839 131.176C77.3205 136.821 69.2512 139.063 61.2743 138.767C50.5624 138.369 39.1066 133.467 31.8536 125.473C31.5282 125.117 31.212 124.754 30.9048 124.382C30.5975 124.011 30.3 123.631 30.0122 123.244C29.7237 122.858 29.4453 122.464 29.1768 122.064C28.9091 121.662 28.6511 121.256 28.4027 120.842C28.1551 120.428 27.9179 120.009 27.6909 119.584C27.4647 119.158 27.2488 118.728 27.0433 118.29C26.8385 117.854 26.6447 117.413 26.462 116.966C26.2793 116.521 26.1076 116.071 25.9469 115.615C25.787 115.16 25.6384 114.702 25.5011 114.24C25.3639 113.777 25.2384 113.311 25.1246 112.843C25.0109 112.375 24.9091 111.903 24.8194 111.43C24.7291 110.956 24.6507 110.481 24.5845 110.003C24.5182 109.525 24.4643 109.046 24.4228 108.566C24.3807 108.085 24.3505 107.605 24.3325 107.123C24.3144 106.641 24.3087 106.159 24.3154 105.676C24.3214 105.195 24.3398 104.712 24.3706 104.231C24.7019 99.5005 26.1859 94.4945 29.9911 91.3931C36.1809 86.3469 46.4219 88.372 53.8064 88.9644C57.1317 69.9814 55.2783 49.4191 53.0564 30.402C46.4239 30.3628 23.0784 31.6159 18.2772 29.8187C16.223 25.5546 17.0654 5.48929 17.9158 0.326628Z" fill="#495154"/>
<path d="M288.626 82.7412C302.293 82.5482 315.961 82.4576 329.628 82.4693C330.903 96.4657 330.323 110.902 330.186 124.954C307.605 124.982 285.026 124.894 262.446 124.69C262.29 133.665 262.544 142.644 262.671 151.616C262.743 156.747 262.741 162.367 258.744 166.193C254.309 170.435 248.643 169.783 243.018 169.526C232.431 168.124 222.871 164.4 214.797 157.25C205.6 149.108 201.059 138.623 200.474 126.456C199.96 115.782 201.252 104.114 208.989 96.041C224.265 80.1049 267.62 83.0418 288.626 82.7412Z" fill="#495154"/>
</g>
<defs>
<filter id="filter0_d_692_1542" x="0.493671" y="0" width="668.506" height="195.661" filterUnits="userSpaceOnUse" color-interpolation-filters="sRGB">
<feFlood flood-opacity="0" result="BackgroundImageFix"/>
<feColorMatrix in="SourceAlpha" type="matrix" values="0 0 0 0 0 0 0 0 0 0 0 0 0 0 0 0 0 0 127 0" result="hardAlpha"/>
<feOffset dx="-16.5063" dy="12.3797"/>
<feComposite in2="hardAlpha" operator="out"/>
<feColorMatrix type="matrix" values="0 0 0 0 1 0 0 0 0 1 0 0 0 0 1 0 0 0 1 0"/>
<feBlend mode="normal" in2="BackgroundImageFix" result="effect1_dropShadow_692_1542"/>
<feBlend mode="normal" in="SourceGraphic" in2="effect1_dropShadow_692_1542" result="shape"/>
</filter>
</defs>
</svg>
