<svg xmlns="http://www.w3.org/2000/svg" width="51" height="50" viewBox="0 0 51 50" fill="none">
  <path d="M25.2164 7.76953C23.1554 7.76953 21.1788 8.58826 19.7214 10.0456C18.2641 11.503 17.4454 13.4796 17.4454 15.5406C17.4454 17.6016 18.2641 19.5782 19.7214 21.0355C21.1788 22.4929 23.1554 23.3116 25.2164 23.3116C27.2774 23.3116 29.254 22.4929 30.7113 21.0355C32.1687 19.5782 32.9874 17.6016 32.9874 15.5406C32.9874 13.4796 32.1687 11.503 30.7113 10.0456C29.254 8.58826 27.2774 7.76953 25.2164 7.76953ZM16.9273 27.4561C14.8663 27.4561 12.8897 28.2749 11.4323 29.7322C9.97498 31.1896 9.15625 33.1662 9.15625 35.2272V37.689C9.15625 39.2515 10.2877 40.5819 11.8295 40.8327C20.6947 42.2812 29.7381 42.2812 38.6033 40.8327C39.3489 40.71 40.0268 40.3267 40.5164 39.7511C41.0059 39.1754 41.2753 38.4447 41.2765 37.689V35.2272C41.2765 33.1662 40.4578 31.1896 39.0004 29.7322C37.5431 28.2749 35.5665 27.4561 33.5055 27.4561H32.8009C32.4141 27.4575 32.0383 27.5169 31.6736 27.6344L29.879 28.2208C26.8493 29.2099 23.5835 29.2099 20.5538 28.2208L18.7592 27.6344C18.3954 27.5177 18.0159 27.4576 17.6339 27.4561H16.9273Z" fill="#D68057"/>
</svg>