<svg width="24" height="24" viewBox="0 0 24 24" fill="none" xmlns="http://www.w3.org/2000/svg">
<path d="M9 17C10.4308 17 11.8653 17.0433 13.2893 17.0433" stroke="black" stroke-linecap="round"/>
<path d="M6.98081 14.7175C7.04355 14.8788 7.38445 15.2408 7.54355 15.4934C7.7254 15.7359 7.86043 15.9104 8.07746 16.1275C8.29634 16.3463 8.54858 16.5268 8.75545 16.7595C9.01596 17.0526 9.30266 17.3866 9.39021 17.7806C9.46204 18.1038 9.53607 18.3719 9.53607 18.7043C9.53607 19.2076 9.67984 19.6612 9.76836 20.1521C9.88022 20.7724 10.5638 21.4271 11.2107 21.4271C11.6758 21.4271 12.2213 21.2894 12.5505 20.9409C12.7339 20.7467 12.7994 20.4856 13.0367 20.3331C13.2256 20.2117 13.3038 19.9637 13.3986 19.774C13.4858 19.5997 13.4671 19.3455 13.4743 19.1527C13.4889 18.7568 13.5178 18.3207 13.5823 17.9264C13.711 17.1398 13.9937 16.5318 14.5439 15.9816C15.212 15.3135 15.6914 14.4885 16.0997 13.6478C16.3392 13.1549 16.3163 12.2687 16.1727 11.7517C16.0023 11.1383 15.7004 10.5412 15.4785 9.94191C15.1617 9.08659 14.236 8.31545 13.4554 7.91067C13.1274 7.74061 12.6733 7.71619 12.3074 7.71619C11.7736 7.71619 11.2248 7.73883 10.7029 7.86205C9.75821 8.08511 8.96991 8.44398 8.20172 9.05324C7.72937 9.42786 7.41868 9.82731 7.05698 10.2924C6.71896 10.7269 6.7161 11.2951 6.7161 11.8273C6.7161 12.0997 6.66748 12.3489 6.66748 12.616C6.66748 13.3637 6.70985 14.0207 6.98081 14.7175Z" stroke="black" stroke-linecap="round"/>
<path d="M2 12.4323C2.59691 12.4323 3.1852 12.487 3.75032 12.6754" stroke="black" stroke-linecap="round"/>
<path d="M4.72266 5.62549C4.73881 5.69816 4.82719 5.73543 4.87662 5.78485C5.03519 5.94342 5.15504 6.13386 5.3034 6.30077C5.43331 6.44691 5.53843 6.57092 5.64644 6.73295C5.74795 6.88522 5.90816 7.0241 5.98678 7.18133" stroke="black" stroke-linecap="round"/>
<path d="M11.627 3V5.04204" stroke="black" stroke-linecap="round"/>
<path d="M17.1206 7.08411C17.1411 6.92034 17.4659 6.6886 17.596 6.60871C17.7841 6.49331 17.9561 6.40119 18.1417 6.28187C18.3759 6.13127 18.5774 5.9677 18.7737 5.77136" stroke="black" stroke-linecap="round"/>
<path d="M18.9199 12.2378C19.7027 12.2813 20.5272 12.335 21.3023 12.335" stroke="black" stroke-linecap="round"/>
</svg>
